<?xml version="1.0" standalone="no"?>
<!DOCTYPE svg PUBLIC "-//W3C//DTD SVG 20010904//EN"
 "http://www.w3.org/TR/2001/REC-SVG-20010904/DTD/svg10.dtd">
<svg version="1.0" xmlns="http://www.w3.org/2000/svg"
 width="192.000000pt" height="192.000000pt" viewBox="0 0 192.000000 192.000000"
 preserveAspectRatio="xMidYMid meet">
<metadata>
Created by potrace 1.11, written by Peter Selinger 2001-2013
</metadata>
<g transform="translate(0.000000,192.000000) scale(0.100000,-0.100000)"
fill="#000000" stroke="none">
<path d="M59 1865 c-1 0 -2 -407 -3 -905 l-2 -906 906 1 905 0 0 905 1 906
-903 0 c-497 0 -904 0 -904 -1z m716 -504 c7 -1 10 -57 10 -153 l0 -153 173 0
172 -1 0 153 c0 139 2 153 18 154 47 2 144 -1 150 -5 5 -3 9 -764 3 -786 0 -3
-39 -5 -86 -5 l-85 0 0 168 c0 166 0 167 -22 168 -28 1 -287 1 -308 0 -13 -1
-15 -25 -14 -159 0 -86 -1 -162 -3 -167 -2 -6 -37 -10 -86 -10 l-82 1 -3 396
-2 397 32 3 c28 2 94 2 133 -1z"/>
</g>
</svg>
